<?xml version="1.0" encoding="UTF-8"?>
<svg width="57px" height="57px" viewBox="0 0 57 57" version="1.1" xmlns="http://www.w3.org/2000/svg" xmlns:xlink="http://www.w3.org/1999/xlink">
    <!-- Generator: Sketch 51.3 (57544) - http://www.bohemiancoding.com/sketch -->
    <title>Account</title>
    <desc>Created with Sketch.</desc>
    <defs></defs>
    <g id="Page-1" stroke="none" stroke-width="1" fill="none" fill-rule="evenodd">
        <g id="Desktop-HD-Copy" transform="translate(-1507.000000, -38.000000)" fill="#FFFFFF" fill-rule="nonzero">
            <path d="M1535.48964,38 C1519.75958,38 1507,50.7750136 1507,66.5 C1507,82.2249864 1519.75958,95 1535.48964,95 C1551.21969,95 1564,82.2249864 1564,66.5 C1564,50.7750136 1551.22034,38 1535.48964,38 Z M1535.48964,40.7138972 C1549.75259,40.7138972 1561.28473,52.2424891 1561.28473,66.4996115 C1561.28473,73.6699359 1558.38511,80.1474441 1553.66875,84.8216876 C1552.68958,77.5904989 1547.54067,71.6769561 1540.7291,69.6386519 C1545.44281,67.6810251 1548.76999,63.0445951 1548.76999,57.6574632 C1548.76999,50.504621 1542.92276,44.6998569 1535.72411,44.6998569 C1528.5311,44.6998569 1522.67824,50.5044915 1522.67824,57.6574632 C1522.67824,62.979069 1525.9093,67.5543757 1530.52675,69.5525354 C1523.59153,71.5152126 1518.33393,77.4894902 1517.3319,84.7990254 C1512.62324,80.1275014 1509.69584,73.6654035 1509.69584,66.4996115 C1509.69584,52.2418416 1521.22862,40.7138972 1535.49093,40.7138972 L1535.48964,40.7138972 Z" id="Account"></path>
        </g>
    </g>
</svg>