<?xml version="1.0" encoding="UTF-8"?>
<svg width="32px" height="32px" viewBox="0 0 32 32" version="1.1" xmlns="http://www.w3.org/2000/svg" xmlns:xlink="http://www.w3.org/1999/xlink">
    <!-- Generator: Sketch 51.3 (57544) - http://www.bohemiancoding.com/sketch -->
    <title>Add List Item</title>
    <desc>Created with Sketch.</desc>
    <defs></defs>
    <g id="Page-1" stroke="none" stroke-width="1" fill="none" fill-rule="evenodd">
        <g id="Desktop-HD-Copy" transform="translate(-353.000000, -164.000000)" fill-rule="nonzero">
            <g id="Todo-Board" transform="translate(20.000000, 154.000000)">
                <g id="Add-List-Item" transform="translate(333.000000, 10.000000)">
                    <path d="M16,1.5 C7.97224108,1.5 1.5,7.97224108 1.5,16 C1.5,24.0277589 7.97224108,30.5 16,30.5 C24.0277589,30.5 30.5,24.0277589 30.5,16 C30.5,7.97224108 24.0277589,1.5 16,1.5 Z" id="Shape" stroke="#000000" stroke-width="3"></path>
                    <path d="M22.5081284,14.9810559 L17.6628998,14.9810559 L17.6628998,9.93260332 C17.6628998,9.08469621 16.9864161,8.42105263 16.1221036,8.42105263 C15.2577912,8.42105263 14.5813074,9.08469621 14.5813074,9.93260332 L14.5813074,14.9810559 L9.96184885,14.9810559 C9.0975364,14.9810559 8.42105263,15.6446994 8.42105263,16.4926066 C8.42105263,17.3405137 9.0975364,18.0041572 9.96184885,18.0041572 L14.58281,18.0041572 L14.58281,22.5374089 C14.58281,23.385316 15.2592938,24.0489596 16.1236062,24.0489596 C16.9879187,24.0489596 17.6644025,23.385316 17.6644025,22.5374089 L17.6629348,18.0026831 L22.5081634,18.0026831 C23.3724758,18.0026831 24.0489596,17.3390396 24.0489596,16.4911324 C24.0489596,15.6806677 23.3343466,14.981019 22.5081634,14.981019 L22.5081284,14.9810559 Z" id="Shape" fill="#000000"></path>
                </g>
            </g>
        </g>
    </g>
</svg>