<?xml version="1.0" encoding="UTF-8"?>
<svg width="57px" height="57px" viewBox="0 0 57 57" version="1.1" xmlns="http://www.w3.org/2000/svg" xmlns:xlink="http://www.w3.org/1999/xlink">
    <!-- Generator: Sketch 51.3 (57544) - http://www.bohemiancoding.com/sketch -->
    <title>Add Board</title>
    <desc>Created with Sketch.</desc>
    <defs></defs>
    <g id="Page-1" stroke="none" stroke-width="1" fill="none" fill-rule="evenodd">
        <g id="Desktop-HD-Copy" transform="translate(-1425.000000, -38.000000)" fill="#FFFFFF" fill-rule="nonzero">
            <path d="M1429.17073,38 C1426.88441,38 1425,39.8844061 1425,42.1707317 L1425,78.3170732 C1425,80.6033988 1426.88441,82.4878049 1429.17073,82.4878049 L1437.5122,82.4878049 L1437.5122,90.8292683 C1437.5122,93.1155939 1439.3966,95 1441.68293,95 L1477.82927,95 C1480.11559,95 1482,93.1155939 1482,90.8292683 L1482,54.6829268 C1482,52.3966012 1480.11559,50.5121951 1477.82927,50.5121951 L1469.4878,50.5121951 L1469.4878,42.1707317 C1469.4878,39.8844061 1467.6034,38 1465.31707,38 L1429.17073,38 Z M1429.17073,40.7804878 L1465.31707,40.7804878 C1466.11264,40.7804878 1466.70732,41.3751438 1466.70732,42.1707317 L1466.70732,50.5121951 L1441.68293,50.5121951 C1439.3966,50.5121951 1437.5122,52.3966012 1437.5122,54.6829268 L1437.5122,79.7073171 L1429.17073,79.7073171 C1428.37516,79.7073171 1427.78049,79.1126611 1427.78049,78.3170732 L1427.78049,42.1707317 C1427.78049,41.3751646 1428.37514,40.7804878 1429.17073,40.7804878 Z M1441.68293,53.2926829 L1477.82927,53.2926829 C1478.62484,53.2926829 1479.21951,53.8873389 1479.21951,54.6829268 L1479.21951,90.8292683 C1479.21951,91.6248354 1478.62486,92.2195122 1477.82927,92.2195122 L1441.68293,92.2195122 C1440.88736,92.2195122 1440.29268,91.6248562 1440.29268,90.8292683 L1440.29268,54.6829268 C1440.29268,53.8873598 1440.88734,53.2926829 1441.68293,53.2926829 Z M1459.60387,59.5270927 C1458.88706,59.6058361 1458.34938,60.2194967 1458.36571,60.9390244 L1458.36571,71.3658537 L1447.93889,71.3658537 C1447.89544,71.3631385 1447.852,71.3631385 1447.80855,71.3658537 C1447.43927,71.3821459 1447.09174,71.545063 1446.84462,71.8193095 C1446.59481,72.090838 1446.46719,72.4519817 1446.48349,72.8212583 C1446.49978,73.1905349 1446.6627,73.538068 1446.93694,73.7851839 C1447.20847,74.0349968 1447.56962,74.1626143 1447.93889,74.1463206 L1458.36572,74.1463206 L1458.36572,84.5731499 C1458.36029,84.9451513 1458.5042,85.303584 1458.76487,85.5696767 C1459.02826,85.8330654 1459.38396,85.9824054 1459.75598,85.9824054 C1460.12799,85.9824054 1460.4837,85.8330654 1460.74708,85.5696767 C1461.00776,85.3035771 1461.15167,84.9451513 1461.14624,84.5731499 L1461.14624,74.1463206 L1471.57307,74.1463206 C1471.94507,74.1517509 1472.3035,74.0078384 1472.56959,73.7471677 C1472.83298,73.483779 1472.98232,73.1280782 1472.98232,72.7560628 C1472.98232,72.3840474 1472.83298,72.0283396 1472.56959,71.7649579 C1472.30349,71.5042872 1471.94507,71.3603761 1471.57307,71.365805 L1461.14624,71.365805 L1461.14624,60.9389757 C1461.15438,60.5398228 1460.99146,60.1542526 1460.69549,59.8827379 C1460.39952,59.6139204 1460.00309,59.483585 1459.60394,59.5270301 L1459.60387,59.5270927 Z" id="Add-Board"></path>
        </g>
    </g>
</svg>