<?xml version="1.0" encoding="UTF-8"?>
<svg width="32px" height="32px" viewBox="0 0 32 32" version="1.1" xmlns="http://www.w3.org/2000/svg" xmlns:xlink="http://www.w3.org/1999/xlink">
    <!-- Generator: Sketch 51.3 (57544) - http://www.bohemiancoding.com/sketch -->
    <title>collapse</title>
    <desc>Created with Sketch.</desc>
    <defs></defs>
    <g id="Page-1" stroke="none" stroke-width="1" fill="none" fill-rule="evenodd">
        <g id="Desktop-HD-Copy" transform="translate(-30.000000, -164.000000)" fill="#000000" fill-rule="nonzero">
            <g id="Todo-Board" transform="translate(20.000000, 154.000000)">
                <g id="collapse" transform="translate(26.000000, 26.000000) rotate(-180.000000) translate(-26.000000, -26.000000) translate(10.000000, 10.000000)">
                    <path d="M14.5825173,20.6912695 C15.1456013,21.2447541 16.1734151,21.2447541 16.7364991,20.6912695 L22.7013719,14.8280847 C23.2981243,14.2415056 23.2981243,13.2974025 22.7013719,12.7108235 C22.1046195,12.1242444 21.1441424,12.1242444 20.54739,12.7108235 L15.6764087,17.5000683 L10.8054273,12.7108235 C10.5064082,12.4181724 10.1089952,12.2553191 9.71160217,12.2553191 C9.31420909,12.2553191 8.91681601,12.4181854 8.61777705,12.7108235 C8.02102467,13.2974025 8.02102467,14.2415056 8.61777705,14.8280847 L14.5825173,20.6912695 Z" id="Shape"></path>
                    <path d="M16,32 C24.8249263,32 32,24.8249263 32,16 C32,7.17507368 24.8249263,0 16,0 C7.17507368,0 0,7.17507368 0,16 C0,24.8249263 7.17507368,32 16,32 Z M16,3.09861053 C23.1080421,3.09861053 28.9013895,8.89195789 28.9013895,16 C28.9013895,23.1080421 23.1080421,28.9013895 16,28.9013895 C8.89195789,28.9013895 3.09861053,23.1080421 3.09861053,16 C3.09861053,8.89195789 8.89195789,3.09861053 16,3.09861053 Z" id="Shape"></path>
                </g>
            </g>
        </g>
    </g>
</svg>