<?xml version="1.0" encoding="UTF-8"?>
<svg width="40px" height="40px" viewBox="0 0 40 40" version="1.1" xmlns="http://www.w3.org/2000/svg" xmlns:xlink="http://www.w3.org/1999/xlink">
    <!-- Generator: Sketch 51.3 (57544) - http://www.bohemiancoding.com/sketch -->
    <title>complete</title>
    <desc>Created with Sketch.</desc>
    <defs></defs>
    <g id="Page-1" stroke="none" stroke-width="1" fill="none" fill-rule="evenodd">
        <g id="Desktop-HD-Copy" transform="translate(-131.000000, -313.000000)" fill="#FFFFFF" fill-rule="nonzero">
            <g id="Todo-Board" transform="translate(20.000000, 154.000000)">
                <g id="Modify-Item" transform="translate(22.000000, 146.000000)">
                    <path d="M124.876361,32.911229 C124.876361,41.7508345 117.701193,48.9822494 108.931232,48.9822494 C100.161271,48.9822494 92.9861024,41.7504313 92.9861024,32.911229 C92.9861024,22.2195233 103.251657,14.5454428 113.315612,17.4433304 L116.504678,14.229086 C103.054738,9.70768786 89,18.0464926 89,32.9113499 C89,43.9602521 97.9687603,52.9998231 108.931112,52.9998231 C119.893463,52.9998231 128.862224,43.9602521 128.862224,32.9113499 L124.876361,32.911229 Z M128.393546,20.7754174 C130.248218,18.9061025 127.42791,16.0649389 125.574798,17.9344151 L108.052876,35.5946778 L100.857708,28.3427019 C99.0030358,26.4749593 96.1841282,29.3159615 98.03896,31.1837041 L106.643722,39.8564029 C107.421839,40.6406629 108.684353,40.6406629 109.462469,39.8564029 L128.393546,20.7754174 Z" id="complete"></path>
                </g>
            </g>
        </g>
    </g>
</svg>