<?xml version="1.0" encoding="UTF-8"?>
<svg width="40px" height="40px" viewBox="0 0 40 40" version="1.1" xmlns="http://www.w3.org/2000/svg" xmlns:xlink="http://www.w3.org/1999/xlink">
    <!-- Generator: Sketch 51.3 (57544) - http://www.bohemiancoding.com/sketch -->
    <title>edit</title>
    <desc>Created with Sketch.</desc>
    <defs></defs>
    <g id="Page-1" stroke="none" stroke-width="1" fill="none" fill-rule="evenodd">
        <g id="Desktop-HD-Copy" transform="translate(-328.000000, -394.000000)" fill="#000000" fill-rule="nonzero">
            <path d="M366.2,403.8 C364.6,402.2 362,401.8 360,402.4 L360,394 L328,394 L328,422.8 L339.2,434 L360,434 L360,418.4 L366.2,412.2 C368.6,410 368.6,406 366.2,403.8 Z M338,427.2 L334.8,424 L338,424 L338,427.2 Z M356,430 L342,430 L342,420 L332,420 L332,398 L356,398 L356,405.6 L351.6,410 L336,410 L336,414 L347.6,414 L346,415.6 L346,424 L354.4,424 L356,422.4 L356,430 Z M363.4,409.4 L352.8,420 L350,420 L350,417.2 L360.6,406.6 C361.4,405.8 362.6,405.8 363.4,406.6 C364.2,407.4 364.2,408.6 363.4,409.4 Z M336,402 L352,402 L352,406 L336,406 L336,402 Z" id="edit"></path>
        </g>
    </g>
</svg>