<?xml version="1.0" encoding="UTF-8"?>
<svg width="40px" height="39px" viewBox="0 0 40 39" version="1.1" xmlns="http://www.w3.org/2000/svg" xmlns:xlink="http://www.w3.org/1999/xlink">
    <!-- Generator: Sketch 51.3 (57544) - http://www.bohemiancoding.com/sketch -->
    <title>favorite</title>
    <desc>Created with Sketch.</desc>
    <defs></defs>
    <g id="Page-1" stroke="none" stroke-width="1" fill="none" fill-rule="evenodd">
        <g id="Desktop-HD-Copy" transform="translate(-206.000000, -314.000000)" fill-rule="nonzero" stroke="#FFFFFF" stroke-width="4">
            <g id="Todo-Board" transform="translate(20.000000, 154.000000)">
                <g id="Modify-Item" transform="translate(22.000000, 146.000000)">
                    <path d="M177.744583,28.1559914 C177.646742,28.1577088 177.640794,28.1578094 177.531739,28.1596534 C176.456288,28.1776705 175.589081,28.1870558 173.670075,28.2039886 C171.617248,28.2221022 170.717594,28.2319698 169.541674,28.2521415 C169.428238,28.2520598 169.428238,28.2520598 169.31431,28.2518211 C168.499408,28.2501282 168.106102,28.2592631 167.657279,28.3019759 C166.573531,28.405112 166.124824,28.636709 166.022988,28.9418792 C165.916384,29.2768388 166.277356,29.8538446 167.410448,30.7534984 C167.571722,30.8815469 167.744077,31.0126818 167.950254,31.1651628 C168.074887,31.2573367 168.506297,31.5722495 168.520075,31.5826144 C169.423446,32.2654226 170.144951,32.8046126 171.780356,34.0221413 C173.414104,35.2384361 174.145536,35.7850635 175.058384,36.4750656 L176.163182,37.3101576 L175.770167,38.6381244 C175.440659,39.751502 175.165857,40.6377157 174.539855,42.6263023 C173.930843,44.5609172 173.66481,45.4184256 173.343511,46.5015635 C173.306315,46.6230942 173.136504,47.1653079 173.091704,47.311904 C172.907323,47.9152546 172.793874,48.3558269 172.726789,48.7598413 C172.589202,49.5884559 172.673125,49.9457058 172.879216,50.0978124 C173.014804,50.1941107 173.144229,50.215172 173.407282,50.1598494 C173.860162,50.0646041 174.445371,49.7675016 175.248455,49.2333967 C175.459634,49.0929477 176.162103,48.6086146 176.17368,48.6016211 C176.288156,48.5195222 176.288156,48.5195222 176.402654,48.4374079 C177.818268,47.422183 178.540269,46.905311 179.375462,46.310296 C180.671648,45.3868574 181.800913,44.590089 182.881007,43.8386959 L184.004924,43.0568159 L185.14048,43.8216961 C186.420765,44.6840627 187.586326,45.5047129 189.570186,46.9268409 C189.610512,46.9557486 190.434052,47.5463777 190.673399,47.7178279 C191.092619,48.0181252 191.438559,48.2652199 191.768651,48.4999231 C192.195599,48.8050032 192.405964,48.9542642 192.62633,49.1045797 C193.445162,49.6631202 194.05796,49.9776806 194.528256,50.0727572 C194.792272,50.1261314 194.92855,50.1030606 195.043309,50.0219234 C195.288408,49.8414434 195.378949,49.4721734 195.250423,48.6424406 C195.185743,48.2248834 195.071366,47.7683151 194.884699,47.1484397 C194.836471,46.9882839 194.671617,46.4551469 194.652776,46.3932963 L194.654053,46.3975497 C194.307202,45.2470778 193.936696,44.050317 193.46904,42.5634736 C193.243908,41.8477002 192.416349,39.2313398 192.239984,38.6713577 L191.815972,37.3250713 L192.942376,36.474491 C193.592171,35.9838121 194.253872,35.494905 195.152028,34.8390035 C195.399856,34.6580208 196.316781,33.9897491 196.231456,34.0519672 C197.699102,32.9817765 198.562759,32.3410103 199.46826,31.6411369 C199.595718,31.543322 200.109106,31.1558084 200.031501,31.2145815 C200.254616,31.0456069 200.422027,30.9161688 200.581791,30.7880212 C201.73978,29.8591896 202.088583,29.3007483 201.985367,28.9675299 C201.879194,28.6488622 201.443659,28.4279103 200.343246,28.3234004 C199.944865,28.2855648 199.620383,28.2738091 198.85286,28.2606233 C198.643012,28.2570182 198.529524,28.254772 198.423505,28.2518384 C197.282479,28.2319696 196.382783,28.2221012 194.330048,28.2039886 C192.414795,28.1870891 191.549337,28.1777298 190.476012,28.159783 C190.356793,28.1577703 190.356793,28.1577703 190.237534,28.1556774 L188.831663,28.1307649 L188.379298,26.7994277 C188.342024,26.689672 188.342024,26.689672 188.304839,26.5799546 C187.977696,25.6142094 187.972674,25.5991208 187.091171,22.9426044 C186.533513,21.2620325 186.186866,20.2306973 185.824805,19.1838929 C185.767684,19.0257801 185.573527,18.473791 185.555891,18.4242137 C185.451577,18.1309725 185.367209,17.9039919 185.281766,17.6901411 C184.780174,16.4347303 184.38936,16 184.024932,16 C183.649634,16 183.238288,16.4522858 182.749456,17.6854222 C182.599879,18.0627485 182.595799,18.0746355 182.233921,19.1588423 C181.983563,19.8817589 181.739571,20.6004893 181.378697,21.6737759 C180.312972,24.8433841 180.118468,25.4150379 179.620752,26.80507 C179.61618,26.8178367 179.61618,26.8178367 179.611606,26.8306041 L179.136713,28.1559914 L177.744583,28.1559914 Z M198.483455,45.2418505 C198.483992,45.2436308 198.484529,45.245411 198.485065,45.2471911 L198.481839,45.2365111 C198.482158,45.2375563 198.482594,45.2389796 198.483141,45.2407631 Z" id="favorite"></path>
                </g>
            </g>
        </g>
    </g>
</svg>