<?xml version="1.0" encoding="UTF-8"?>
<svg width="17px" height="44px" viewBox="0 0 17 44" version="1.1" xmlns="http://www.w3.org/2000/svg" xmlns:xlink="http://www.w3.org/1999/xlink">
    <!-- Generator: Sketch 51.3 (57544) - http://www.bohemiancoding.com/sketch -->
    <title>priority</title>
    <desc>Created with Sketch.</desc>
    <defs></defs>
    <g id="Page-1" stroke="none" stroke-width="1" fill="none" fill-rule="evenodd">
        <g id="Desktop-HD-Copy" transform="translate(-279.000000, -311.000000)" fill-rule="nonzero" stroke="#FFFFFF" stroke-width="3">
            <g id="Todo-Board" transform="translate(20.000000, 154.000000)">
                <g id="Modify-Item" transform="translate(22.000000, 146.000000)">
                    <path d="M247.506603,44.2044368 C247.199743,44.0731911 246.864807,43.9824724 246.505812,43.9322906 C246.233049,43.8821087 245.942213,43.8589448 245.633381,43.8589448 C245.342565,43.8589448 245.059769,43.8821067 244.787032,43.9322906 C244.426024,43.9824724 244.093071,44.0731911 243.784238,44.2044368 C243.23671,44.4013102 242.741346,44.7236481 242.296093,45.1675571 C241.371497,46.0727676 240.910225,47.161392 240.910225,48.4294773 C240.910225,49.6975627 241.371517,50.7765025 242.296093,51.6643697 C243.22069,52.554164 244.331767,53 245.633432,53 C246.951116,53 248.072256,52.5541443 248.996853,51.6643697 C249.92145,50.7765025 250.382722,49.6975627 250.382722,48.4294773 C250.382722,47.161392 249.92143,46.072817 248.996853,45.1675571 C248.551606,44.7236284 248.054235,44.4012904 247.506706,44.2044368 L247.506603,44.2044368 Z M252.255995,19.423804 C252.787505,15.1099718 250.579317,12.9677555 245.633689,13.0003668 C240.703875,13.0177377 238.521564,15.1254374 239.087371,19.325476 L242.476875,41.7590836 L248.868648,41.7590836 L252.255995,19.423804 Z" id="priority"></path>
                </g>
            </g>
        </g>
    </g>
</svg>