<?xml version="1.0" encoding="UTF-8"?>
<svg width="34px" height="42px" viewBox="0 0 34 42" version="1.1" xmlns="http://www.w3.org/2000/svg" xmlns:xlink="http://www.w3.org/1999/xlink">
    <!-- Generator: Sketch 51.3 (57544) - http://www.bohemiancoding.com/sketch -->
    <title>trash</title>
    <desc>Created with Sketch.</desc>
    <defs></defs>
    <g id="Page-1" stroke="none" stroke-width="1" fill="none" fill-rule="evenodd">
        <g id="Desktop-HD-Copy" transform="translate(-329.000000, -312.000000)" fill-rule="nonzero" stroke="#FFFFFF" stroke-width="2">
            <g id="Todo-Board" transform="translate(20.000000, 154.000000)">
                <g id="Modify-Item" transform="translate(22.000000, 146.000000)">
                    <path d="M289.998519,21.0004128 L317.999244,21.0004128 L316.602388,50.7144489 C316.602388,50.7144489 316.075507,53 314.088075,53 L293.979046,53 C291.991615,53 291.464734,50.7144489 291.464734,50.7144489 L289.998519,21.0004128 Z M303.998858,24.9996592 C303.445765,24.9996592 302.999526,25.4477745 302.999526,26.0008628 L302.999526,47.999598 C302.999526,48.5526911 303.445765,48.9989296 303.998858,48.9989296 C304.551951,48.9989296 304.998189,48.5526863 304.998189,47.999598 L304.998189,26.0008628 C304.998189,25.4477697 304.551946,24.9996592 303.998858,24.9996592 Z M310.997923,24.9996592 C310.439171,24.9996592 309.979824,25.4402723 309.957312,25.9989908 L309.040442,47.999646 C309.017943,48.5302709 309.428555,48.9765143 309.959184,48.9989776 L309.998558,48.9989776 C310.55731,48.9989776 311.016657,48.5583645 311.041041,47.999646 L311.955991,25.9989908 C311.97849,25.4702378 311.567878,25.0240425 311.039121,25.0015312 C311.025996,24.9996558 311.010996,24.9996558 310.997872,24.9996558 L310.997923,24.9996592 Z M298.956985,47.999646 L298.040115,25.9989908 C298.017615,25.4402387 297.558257,24.9996592 296.999504,24.9996592 C296.468879,24.9996592 296.039532,25.4290214 296.039532,25.9596319 C296.039532,25.9727567 296.039532,25.9858814 296.041407,25.9990057 L296.956357,47.9996609 C296.980731,48.558413 297.440087,48.9989925 297.998839,48.9989925 C298.527592,48.9989925 298.958812,48.5696303 298.958812,48.0408917 C298.958812,48.027767 298.956937,48.0127674 298.956937,47.9996427 L298.956985,47.999646 Z M296.013324,15.0005832 L290.221809,15.0005832 C288.993716,15.0005832 288,15.9961709 288,17.2223921 L288,18.9998296 L319.997811,18.9998296 L319.997811,17.2223921 C319.997811,15.9961709 319.004095,15.0005832 317.776002,15.0005832 L311.984487,15.0005832 C311.871988,13.8775111 310.925157,13 309.772038,13 L298.225966,13 C297.985972,13 297.749728,13.0393738 297.522882,13.1143712 C296.66601,13.3993631 296.097898,14.1568535 296.013564,15.0005736 L296.013324,15.0005832 Z" id="trash"></path>
                </g>
            </g>
        </g>
    </g>
</svg>